<svg xmlns="http://www.w3.org/2000/svg" width="19" height="19" viewBox="0 0 19 19"><path d="M16.773,0H2.227A2.229,2.229,0,0,0,0,2.227V16.773A2.229,2.229,0,0,0,2.227,19H16.773A2.229,2.229,0,0,0,19,16.773V2.227A2.229,2.229,0,0,0,16.773,0Zm.742,16.773a.743.743,0,0,1-.742.742h-4.23V11.467h2.293l.379-2.3H12.543V7.57a1.1,1.1,0,0,1,1.113-1.113h1.521v-2.3H13.656a3.413,3.413,0,0,0-3.413,3.421V9.166H8.016v2.3h2.227v6.049H2.227a.743.743,0,0,1-.742-.742V2.227a.743.743,0,0,1,.742-.742H16.773a.743.743,0,0,1,.742.742Z" fill="#29a81f"/></svg>