<svg xmlns="http://www.w3.org/2000/svg" width="19" height="19.004" viewBox="0 0 19 19.004"><g transform="translate(-0.449 0)"><path d="M19.4,5.587a6.944,6.944,0,0,0-.442-2.305A4.868,4.868,0,0,0,16.178.5,6.962,6.962,0,0,0,13.873.059C12.855.011,12.532,0,9.952,0s-2.9.011-3.917.056A6.946,6.946,0,0,0,3.73.5,4.637,4.637,0,0,0,2.045,1.6,4.679,4.679,0,0,0,.95,3.278,6.963,6.963,0,0,0,.508,5.583C.46,6.6.449,6.924.449,9.5S.46,12.407.5,13.42a6.944,6.944,0,0,0,.442,2.305,4.867,4.867,0,0,0,2.781,2.781,6.963,6.963,0,0,0,2.305.442c1.013.045,1.336.056,3.917.056s2.9-.011,3.917-.056a6.942,6.942,0,0,0,2.305-.442,4.861,4.861,0,0,0,2.781-2.781,6.967,6.967,0,0,0,.442-2.305c.045-1.014.056-1.336.056-3.917s0-2.9-.048-3.917Zm-1.711,7.759a5.209,5.209,0,0,1-.327,1.763,3.152,3.152,0,0,1-1.8,1.8,5.227,5.227,0,0,1-1.763.327c-1,.045-1.3.056-3.839.056s-2.84-.011-3.839-.056a5.206,5.206,0,0,1-1.763-.327A2.924,2.924,0,0,1,3.263,16.2a2.955,2.955,0,0,1-.709-1.091,5.228,5.228,0,0,1-.327-1.763c-.045-1-.056-1.3-.056-3.839s.011-2.84.056-3.839a5.206,5.206,0,0,1,.327-1.763,2.888,2.888,0,0,1,.713-1.092,2.95,2.95,0,0,1,1.091-.709,5.231,5.231,0,0,1,1.763-.327c1-.045,1.3-.056,3.839-.056s2.84.011,3.839.056a5.209,5.209,0,0,1,1.763.327,2.922,2.922,0,0,1,1.091.709,2.954,2.954,0,0,1,.709,1.092,5.23,5.23,0,0,1,.327,1.763c.045,1,.056,1.3.056,3.839s-.011,2.833-.056,3.835Zm0,0" transform="translate(0 0)" fill="#29a81f"/><path d="M129.831,124.5a4.882,4.882,0,1,0,4.882,4.882A4.883,4.883,0,0,0,129.831,124.5Zm0,8.048A3.167,3.167,0,1,1,133,129.382,3.167,3.167,0,0,1,129.831,132.548Zm0,0" transform="translate(-119.879 -119.878)" fill="#29a81f"/><path d="M364.729,89.741a1.14,1.14,0,1,1-1.14-1.14A1.14,1.14,0,0,1,364.729,89.741Zm0,0" transform="translate(-348.562 -85.313)" fill="#29a81f"/></g></svg>